<mxfile host="app.diagrams.net" modified="2023-08-02T16:18:03.510Z" agent="5.0 (X11; Linux x86_64) AppleWebKit/537.36 (KHTML, like Gecko) Chrome/104.0.0.0 Safari/537.36" etag="qwf9TSBoUUgE_2a52_nJ" version="20.8.21" type="github">
  <diagram id="R2lEEEUBdFMjLlhIrx00" name="Page-1">
    <mxGraphModel dx="1194" dy="801" grid="1" gridSize="10" guides="1" tooltips="1" connect="1" arrows="1" fold="1" page="1" pageScale="1" pageWidth="850" pageHeight="1100" math="0" shadow="0" extFonts="Permanent Marker^https://fonts.googleapis.com/css?family=Permanent+Marker">
      <root>
        <mxCell id="0" />
        <mxCell id="1" parent="0" />
        <mxCell id="C-vyLk0tnHw3VtMMgP7b-12" value="" style="edgeStyle=entityRelationEdgeStyle;endArrow=ERzeroToMany;startArrow=ERone;endFill=1;startFill=0;" parent="1" target="C-vyLk0tnHw3VtMMgP7b-17" edge="1">
          <mxGeometry width="100" height="100" relative="1" as="geometry">
            <mxPoint x="700" y="165" as="sourcePoint" />
            <mxPoint x="460" y="205" as="targetPoint" />
          </mxGeometry>
        </mxCell>
        <mxCell id="wMOOJaim9DH7x2-_k4i8-1" value="Main" style="ellipse;whiteSpace=wrap;html=1;" vertex="1" parent="1">
          <mxGeometry x="180" y="130" width="120" height="80" as="geometry" />
        </mxCell>
        <mxCell id="wMOOJaim9DH7x2-_k4i8-2" value="Main class" style="swimlane;fontStyle=0;childLayout=stackLayout;horizontal=1;startSize=30;horizontalStack=0;resizeParent=1;resizeParentMax=0;resizeLast=0;collapsible=1;marginBottom=0;whiteSpace=wrap;html=1;" vertex="1" parent="1">
          <mxGeometry x="170" y="240" width="140" height="120" as="geometry" />
        </mxCell>
        <mxCell id="wMOOJaim9DH7x2-_k4i8-3" value="assembly" style="text;strokeColor=none;fillColor=none;align=left;verticalAlign=middle;spacingLeft=4;spacingRight=4;overflow=hidden;points=[[0,0.5],[1,0.5]];portConstraint=eastwest;rotatable=0;whiteSpace=wrap;html=1;" vertex="1" parent="wMOOJaim9DH7x2-_k4i8-2">
          <mxGeometry y="30" width="140" height="30" as="geometry" />
        </mxCell>
        <mxCell id="wMOOJaim9DH7x2-_k4i8-4" value="Item 2" style="text;strokeColor=none;fillColor=none;align=left;verticalAlign=middle;spacingLeft=4;spacingRight=4;overflow=hidden;points=[[0,0.5],[1,0.5]];portConstraint=eastwest;rotatable=0;whiteSpace=wrap;html=1;" vertex="1" parent="wMOOJaim9DH7x2-_k4i8-2">
          <mxGeometry y="60" width="140" height="30" as="geometry" />
        </mxCell>
        <mxCell id="wMOOJaim9DH7x2-_k4i8-5" value="Item 3" style="text;strokeColor=none;fillColor=none;align=left;verticalAlign=middle;spacingLeft=4;spacingRight=4;overflow=hidden;points=[[0,0.5],[1,0.5]];portConstraint=eastwest;rotatable=0;whiteSpace=wrap;html=1;" vertex="1" parent="wMOOJaim9DH7x2-_k4i8-2">
          <mxGeometry y="90" width="140" height="30" as="geometry" />
        </mxCell>
        <mxCell id="wMOOJaim9DH7x2-_k4i8-8" value="assembly" style="ellipse;whiteSpace=wrap;html=1;" vertex="1" parent="1">
          <mxGeometry x="410" y="260" width="120" height="80" as="geometry" />
        </mxCell>
        <mxCell id="wMOOJaim9DH7x2-_k4i8-9" value="" style="endArrow=classic;html=1;rounded=0;entryX=0;entryY=0.375;entryDx=0;entryDy=0;entryPerimeter=0;" edge="1" parent="1" target="wMOOJaim9DH7x2-_k4i8-8">
          <mxGeometry width="50" height="50" relative="1" as="geometry">
            <mxPoint x="240" y="290" as="sourcePoint" />
            <mxPoint x="340" y="340" as="targetPoint" />
            <Array as="points" />
          </mxGeometry>
        </mxCell>
        <mxCell id="wMOOJaim9DH7x2-_k4i8-11" value="assembly class" style="swimlane;fontStyle=0;childLayout=stackLayout;horizontal=1;startSize=30;horizontalStack=0;resizeParent=1;resizeParentMax=0;resizeLast=0;collapsible=1;marginBottom=0;whiteSpace=wrap;html=1;" vertex="1" parent="1">
          <mxGeometry x="410" y="360" width="140" height="120" as="geometry" />
        </mxCell>
        <mxCell id="wMOOJaim9DH7x2-_k4i8-12" value="cells" style="text;strokeColor=none;fillColor=none;align=left;verticalAlign=middle;spacingLeft=4;spacingRight=4;overflow=hidden;points=[[0,0.5],[1,0.5]];portConstraint=eastwest;rotatable=0;whiteSpace=wrap;html=1;" vertex="1" parent="wMOOJaim9DH7x2-_k4i8-11">
          <mxGeometry y="30" width="140" height="30" as="geometry" />
        </mxCell>
        <mxCell id="wMOOJaim9DH7x2-_k4i8-16" value="" style="endArrow=classic;html=1;rounded=0;" edge="1" parent="wMOOJaim9DH7x2-_k4i8-11">
          <mxGeometry width="50" height="50" relative="1" as="geometry">
            <mxPoint x="40" y="44.5" as="sourcePoint" />
            <mxPoint x="180" y="45" as="targetPoint" />
            <Array as="points">
              <mxPoint x="95" y="44.5" />
              <mxPoint x="160" y="44.5" />
            </Array>
          </mxGeometry>
        </mxCell>
        <mxCell id="wMOOJaim9DH7x2-_k4i8-13" value="Item 2" style="text;strokeColor=none;fillColor=none;align=left;verticalAlign=middle;spacingLeft=4;spacingRight=4;overflow=hidden;points=[[0,0.5],[1,0.5]];portConstraint=eastwest;rotatable=0;whiteSpace=wrap;html=1;" vertex="1" parent="wMOOJaim9DH7x2-_k4i8-11">
          <mxGeometry y="60" width="140" height="30" as="geometry" />
        </mxCell>
        <mxCell id="wMOOJaim9DH7x2-_k4i8-14" value="Item 3" style="text;strokeColor=none;fillColor=none;align=left;verticalAlign=middle;spacingLeft=4;spacingRight=4;overflow=hidden;points=[[0,0.5],[1,0.5]];portConstraint=eastwest;rotatable=0;whiteSpace=wrap;html=1;" vertex="1" parent="wMOOJaim9DH7x2-_k4i8-11">
          <mxGeometry y="90" width="140" height="30" as="geometry" />
        </mxCell>
        <mxCell id="wMOOJaim9DH7x2-_k4i8-15" value="Cells" style="rounded=1;whiteSpace=wrap;html=1;" vertex="1" parent="1">
          <mxGeometry x="590" y="390" width="120" height="60" as="geometry" />
        </mxCell>
        <mxCell id="wMOOJaim9DH7x2-_k4i8-24" value="ISA" style="ellipse;whiteSpace=wrap;html=1;" vertex="1" parent="1">
          <mxGeometry x="980" y="370" width="120" height="80" as="geometry" />
        </mxCell>
        <mxCell id="wMOOJaim9DH7x2-_k4i8-25" value="" style="endArrow=classic;html=1;rounded=0;" edge="1" parent="1">
          <mxGeometry width="50" height="50" relative="1" as="geometry">
            <mxPoint x="1050" y="180" as="sourcePoint" />
            <mxPoint x="1049.5" y="350" as="targetPoint" />
          </mxGeometry>
        </mxCell>
        <mxCell id="wMOOJaim9DH7x2-_k4i8-26" value="1. instr_components.json" style="shape=document;whiteSpace=wrap;html=1;boundedLbl=1;" vertex="1" parent="1">
          <mxGeometry x="980" y="50" width="140" height="70" as="geometry" />
        </mxCell>
        <mxCell id="wMOOJaim9DH7x2-_k4i8-27" value="" style="endArrow=classic;html=1;rounded=0;" edge="1" parent="1">
          <mxGeometry width="50" height="50" relative="1" as="geometry">
            <mxPoint x="470" y="120" as="sourcePoint" />
            <mxPoint x="470" y="260" as="targetPoint" />
          </mxGeometry>
        </mxCell>
        <mxCell id="wMOOJaim9DH7x2-_k4i8-28" value="assembly.json" style="shape=document;whiteSpace=wrap;html=1;boundedLbl=1;" vertex="1" parent="1">
          <mxGeometry x="410" y="40" width="140" height="70" as="geometry" />
        </mxCell>
        <mxCell id="wMOOJaim9DH7x2-_k4i8-29" value="2. model_equations.json" style="shape=document;whiteSpace=wrap;html=1;boundedLbl=1;" vertex="1" parent="1">
          <mxGeometry x="980" y="160" width="140" height="70" as="geometry" />
        </mxCell>
        <mxCell id="wMOOJaim9DH7x2-_k4i8-30" value="3. component_active_cycles (self)" style="text;strokeColor=none;fillColor=none;align=left;verticalAlign=middle;spacingLeft=4;spacingRight=4;overflow=hidden;points=[[0,0.5],[1,0.5]];portConstraint=eastwest;rotatable=0;whiteSpace=wrap;html=1;" vertex="1" parent="1">
          <mxGeometry x="560" y="582.5" width="260" height="40" as="geometry" />
        </mxCell>
        <mxCell id="wMOOJaim9DH7x2-_k4i8-37" value="4. component_inactive_cycles (self)" style="text;strokeColor=none;fillColor=none;align=left;verticalAlign=middle;spacingLeft=4;spacingRight=4;overflow=hidden;points=[[0,0.5],[1,0.5]];portConstraint=eastwest;rotatable=0;whiteSpace=wrap;html=1;" vertex="1" parent="1">
          <mxGeometry x="560" y="612.5" width="260" height="30" as="geometry" />
        </mxCell>
        <mxCell id="wMOOJaim9DH7x2-_k4i8-40" value="instr_segment_values.json" style="shape=document;whiteSpace=wrap;html=1;boundedLbl=1;" vertex="1" parent="1">
          <mxGeometry x="1380" y="380" width="150" height="70" as="geometry" />
        </mxCell>
        <mxCell id="wMOOJaim9DH7x2-_k4i8-46" style="edgeStyle=orthogonalEdgeStyle;rounded=0;orthogonalLoop=1;jettySize=auto;html=1;exitX=0;exitY=0.5;exitDx=0;exitDy=0;entryX=1;entryY=0.5;entryDx=0;entryDy=0;" edge="1" parent="1" source="wMOOJaim9DH7x2-_k4i8-42">
          <mxGeometry relative="1" as="geometry">
            <mxPoint x="1240" y="410" as="targetPoint" />
          </mxGeometry>
        </mxCell>
        <mxCell id="wMOOJaim9DH7x2-_k4i8-42" value="components_hierarchy.json" style="shape=document;whiteSpace=wrap;html=1;boundedLbl=1;" vertex="1" parent="1">
          <mxGeometry x="1380" y="470" width="150" height="70" as="geometry" />
        </mxCell>
        <mxCell id="wMOOJaim9DH7x2-_k4i8-45" style="edgeStyle=orthogonalEdgeStyle;rounded=0;orthogonalLoop=1;jettySize=auto;html=1;exitX=0;exitY=0.5;exitDx=0;exitDy=0;entryX=1;entryY=0.5;entryDx=0;entryDy=0;" edge="1" parent="1" source="wMOOJaim9DH7x2-_k4i8-43">
          <mxGeometry relative="1" as="geometry">
            <mxPoint x="1240" y="410" as="targetPoint" />
          </mxGeometry>
        </mxCell>
        <mxCell id="wMOOJaim9DH7x2-_k4i8-43" value="instr_components.json" style="shape=document;whiteSpace=wrap;html=1;boundedLbl=1;" vertex="1" parent="1">
          <mxGeometry x="1380" y="300" width="150" height="70" as="geometry" />
        </mxCell>
        <mxCell id="wMOOJaim9DH7x2-_k4i8-47" value="" style="endArrow=classic;html=1;rounded=0;exitX=0;exitY=0.5;exitDx=0;exitDy=0;entryX=1;entryY=0.333;entryDx=0;entryDy=0;entryPerimeter=0;" edge="1" parent="1" source="wMOOJaim9DH7x2-_k4i8-24" target="wMOOJaim9DH7x2-_k4i8-15">
          <mxGeometry width="50" height="50" relative="1" as="geometry">
            <mxPoint x="710" y="404.5" as="sourcePoint" />
            <mxPoint x="580" y="320" as="targetPoint" />
            <Array as="points" />
          </mxGeometry>
        </mxCell>
        <mxCell id="wMOOJaim9DH7x2-_k4i8-48" value="&lt;span style=&quot;font-weight: normal;&quot;&gt;Cell Structure&lt;/span&gt;" style="swimlane;whiteSpace=wrap;html=1;" vertex="1" parent="1">
          <mxGeometry x="560" y="465" width="270" height="217.5" as="geometry" />
        </mxCell>
        <mxCell id="wMOOJaim9DH7x2-_k4i8-21" value="1. active_components" style="text;strokeColor=none;fillColor=none;align=left;verticalAlign=middle;spacingLeft=4;spacingRight=4;overflow=hidden;points=[[0,0.5],[1,0.5]];portConstraint=eastwest;rotatable=0;whiteSpace=wrap;html=1;" vertex="1" parent="wMOOJaim9DH7x2-_k4i8-48">
          <mxGeometry y="72.5" width="260" height="30" as="geometry" />
        </mxCell>
        <mxCell id="wMOOJaim9DH7x2-_k4i8-22" value="2. instr_list[id] component_active_cycles" style="text;strokeColor=none;fillColor=none;align=left;verticalAlign=middle;spacingLeft=4;spacingRight=4;overflow=hidden;points=[[0,0.5],[1,0.5]];portConstraint=eastwest;rotatable=0;whiteSpace=wrap;html=1;" vertex="1" parent="wMOOJaim9DH7x2-_k4i8-48">
          <mxGeometry y="97.5" width="260" height="30" as="geometry" />
        </mxCell>
        <mxCell id="wMOOJaim9DH7x2-_k4i8-20" value="row, col, instr_list, total_execution_window" style="text;strokeColor=none;fillColor=none;align=left;verticalAlign=middle;spacingLeft=4;spacingRight=4;overflow=hidden;points=[[0,0.5],[1,0.5]];portConstraint=eastwest;rotatable=0;whiteSpace=wrap;html=1;" vertex="1" parent="wMOOJaim9DH7x2-_k4i8-48">
          <mxGeometry x="5" y="27.5" width="260" height="30" as="geometry" />
        </mxCell>
        <mxCell id="wMOOJaim9DH7x2-_k4i8-51" value="&lt;span style=&quot;font-weight: normal;&quot;&gt;ISA info&lt;/span&gt;" style="swimlane;whiteSpace=wrap;html=1;" vertex="1" parent="1">
          <mxGeometry x="880" y="465" width="300" height="215" as="geometry" />
        </mxCell>
        <mxCell id="wMOOJaim9DH7x2-_k4i8-52" value="1. segment values of each instruction" style="text;strokeColor=none;fillColor=none;align=left;verticalAlign=middle;spacingLeft=4;spacingRight=4;overflow=hidden;points=[[0,0.5],[1,0.5]];portConstraint=eastwest;rotatable=0;whiteSpace=wrap;html=1;" vertex="1" parent="wMOOJaim9DH7x2-_k4i8-51">
          <mxGeometry y="35" width="260" height="30" as="geometry" />
        </mxCell>
        <mxCell id="wMOOJaim9DH7x2-_k4i8-53" value="2. all the components of hardware" style="text;strokeColor=none;fillColor=none;align=left;verticalAlign=middle;spacingLeft=4;spacingRight=4;overflow=hidden;points=[[0,0.5],[1,0.5]];portConstraint=eastwest;rotatable=0;whiteSpace=wrap;html=1;" vertex="1" parent="wMOOJaim9DH7x2-_k4i8-51">
          <mxGeometry y="70" width="260" height="30" as="geometry" />
        </mxCell>
        <mxCell id="wMOOJaim9DH7x2-_k4i8-49" value="Provides:" style="text;strokeColor=none;fillColor=none;align=left;verticalAlign=middle;spacingLeft=4;spacingRight=4;overflow=hidden;points=[[0,0.5],[1,0.5]];portConstraint=eastwest;rotatable=0;whiteSpace=wrap;html=1;" vertex="1" parent="wMOOJaim9DH7x2-_k4i8-51">
          <mxGeometry y="100" width="260" height="40" as="geometry" />
        </mxCell>
        <mxCell id="wMOOJaim9DH7x2-_k4i8-50" value="1. active component of asked instr with their cell-specific signals" style="text;strokeColor=none;fillColor=none;align=left;verticalAlign=middle;spacingLeft=4;spacingRight=4;overflow=hidden;points=[[0,0.5],[1,0.5]];portConstraint=eastwest;rotatable=0;whiteSpace=wrap;html=1;" vertex="1" parent="wMOOJaim9DH7x2-_k4i8-51">
          <mxGeometry y="130" width="280" height="35" as="geometry" />
        </mxCell>
        <mxCell id="wMOOJaim9DH7x2-_k4i8-55" value="2. assembly_specific active cycles of each component of asked instr" style="text;strokeColor=none;fillColor=none;align=left;verticalAlign=middle;spacingLeft=4;spacingRight=4;overflow=hidden;points=[[0,0.5],[1,0.5]];portConstraint=eastwest;rotatable=0;whiteSpace=wrap;html=1;" vertex="1" parent="wMOOJaim9DH7x2-_k4i8-51">
          <mxGeometry y="165" width="280" height="30" as="geometry" />
        </mxCell>
        <mxCell id="wMOOJaim9DH7x2-_k4i8-57" value="" style="endArrow=classic;html=1;rounded=0;exitX=0;exitY=0.421;exitDx=0;exitDy=0;entryX=1;entryY=0.333;entryDx=0;entryDy=0;entryPerimeter=0;exitPerimeter=0;" edge="1" parent="1" source="wMOOJaim9DH7x2-_k4i8-40">
          <mxGeometry width="50" height="50" relative="1" as="geometry">
            <mxPoint x="1370" y="409.5" as="sourcePoint" />
            <mxPoint x="1100" y="409.5" as="targetPoint" />
            <Array as="points" />
          </mxGeometry>
        </mxCell>
      </root>
    </mxGraphModel>
  </diagram>
</mxfile>
